<svg xmlns="http://www.w3.org/2000/svg" viewBox="0 0 59.057 51.438"><title>criminal-justice</title><g id="Layer_2" data-name="Layer 2"><g id="Layer_1-2" data-name="Layer 1"><path d="M35.051,44.711a6.794,6.794,0,0,0-1.466-.626,6.459,6.459,0,0,0-.64-.144c-.041-.007-.087-.013-.133-.019l-.039,0a3.59,3.59,0,0,0-1.866-2.275c-1.664-.855-3.742-.816-5.574-.784-.472.009-.935.018-1.381.011l-4.281-.061c-.324,0-.65-.014-.977-.023a25.092,25.092,0,0,0-2.961.033c-1.374.124-2.748.4-3.489,1.58a5.514,5.514,0,0,0-.479,1.078l-.077.213c-.037.1-.08.195-.122.291l-.03.067c-2.852.491-6.15,2.471-6.718,5.693a1.527,1.527,0,0,0,.307,1.239,1.289,1.289,0,0,0,1.009.458H37.16a1.467,1.467,0,0,0,1.056-.5,1.135,1.135,0,0,0,.3-.892A7.024,7.024,0,0,0,35.051,44.711Zm-4.791.206a2.2,2.2,0,0,0,.417.862,2.423,2.423,0,0,0,1.5.779,4.609,4.609,0,0,1,3.173,2.162H8.271a6.42,6.42,0,0,1,3.876-2.03l.146-.025a2.208,2.208,0,0,0,.351-.112l.051,0,.042-.038a2.705,2.705,0,0,0,1.307-1.419c.061-.137.114-.3.17-.472.109-.341.234-.728.438-.851a5.182,5.182,0,0,1,2.611-.292c.225.011.437.021.627.023l7.681.109c.253,0,.506,0,.763,0a13.921,13.921,0,0,1,2.219.111c.646.1,1.339.277,1.564.782A3.317,3.317,0,0,1,30.26,44.916Z"/><path d="M57.479,29.011l-1.895.359c.065-1.189.055-2.5-.684-3.205a1.758,1.758,0,0,0-1.545-.434c-.3.045-.575.249-.861.282-.685.078.054-.455.266-.875.384-.76-.067-1.961-1.07-1.865l-1.787.169-.537.051c.014-.873.178-1.841.212-2.625a1.25,1.25,0,0,0-1.569-1.2l-4.415,1.251a1.241,1.241,0,0,0,.659,2.391l2.773-.786-.05,1.153a2.433,2.433,0,0,0,.37,1.889,3.119,3.119,0,0,0,2.66.441,2.227,2.227,0,0,0,1.4,2.419,3.471,3.471,0,0,0,1.61.1v.232q.006,1.056.011,2.112a1.258,1.258,0,0,0,1.569,1.2l1.768-.335q-.132,1.011-.264,2.022c-.206,1.578,2.276,1.562,2.479,0q.232-1.776.463-3.552C59.161,29.34,58.17,28.88,57.479,29.011Z"/><path d="M8.628,42.934c1.113-.8.833-2.448,1.653-3.491a4.066,4.066,0,0,1,4.028-1.5c1.554.348,2.218-2.042.659-2.391a6.481,6.481,0,0,0-5.286,1.079,6.639,6.639,0,0,0-1.851,2.01,6.124,6.124,0,0,0-.552,1.256c-.026.083-.288.978-.1,1.016-.316.133-.974.149-1.251.238a8.782,8.782,0,0,0-1.349.563,8.408,8.408,0,0,0-2.351,1.826A8.617,8.617,0,0,0,0,48.9c-.088,1.594,2.392,1.589,2.479,0a6.009,6.009,0,0,1,2.034-4.156,5.919,5.919,0,0,1,2.066-1.209A7.124,7.124,0,0,0,8.628,42.934Z"/><path d="M52.865,34.949c-1.354-1.376-2.859-2.646-4.315-3.873q-.529-.447-1.056-.894c-3.976-3.389-8.164-6.8-12.454-10.127a6.336,6.336,0,0,1,2.127-2.05A4,4,0,0,0,43.1,13.784c-.256-1.507-1.437-2.722-2.479-3.793-.2-.208-.4-.412-.586-.612-1.3-1.4-2.653-2.792-4.032-4.133l-.515-.5A39.208,39.208,0,0,0,31.767,1.4,5.748,5.748,0,0,0,26.775.19a4.125,4.125,0,0,0-2.784,3.285,5.961,5.961,0,0,0,.05,2.243,4,4,0,0,0,.272.906c-.086.067-.177.131-.268.2s-.164.117-.241.175a46.722,46.722,0,0,0-7.9,7.551,4.475,4.475,0,0,0-5.854.188,4.672,4.672,0,0,0-1.358,3.7,6.832,6.832,0,0,0,2.19,3.812l.232.255a97.47,97.47,0,0,0,7.118,7.1c1.306,1.174,2.627,2.3,3.929,3.352,1.211.976,2.646,1.964,4.4,1.324a4.321,4.321,0,0,0,2.725-3.811,5.851,5.851,0,0,0-1.365-3.839,19.1,19.1,0,0,1,1.443-1.594c5.649,7.487,10.919,14.087,17.91,19.055a8.466,8.466,0,0,0,4.67,1.853,4.626,4.626,0,0,0,1.569-.271c2.044-.729,3.085-2.777,2.651-5.215A10.869,10.869,0,0,0,52.865,34.949Zm-27.7-9.161a1.062,1.062,0,0,0-.18.392,1.274,1.274,0,0,0,.259,1.489,3.978,3.978,0,0,1,1.335,2.455,1.57,1.57,0,0,1-1.027,1.625c-.612.148-1.462-.636-2.023-1.155-.154-.142-.295-.272-.418-.374-.96-.794-1.924-1.625-2.865-2.471-1.836-1.646-3.633-3.387-5.341-5.175-.925-.967-1.763-1.878-2.562-2.786a2.525,2.525,0,0,1-.914-2.091,1.608,1.608,0,0,1,1.383-1.4,1.881,1.881,0,0,1,1.939,1.074,1.177,1.177,0,0,0,.91.7,1.454,1.454,0,0,0,1.23-.487,1.047,1.047,0,0,0,.216-.207,45.3,45.3,0,0,1,6.063-6.393c.555-.482,1.119-.947,1.678-1.382.175-.137.361-.268.55-.4a6.533,6.533,0,0,0,1.171-.964A2.361,2.361,0,0,0,26.852,5.7a4.739,4.739,0,0,1-.231-1.115c-.034-.813.269-1.726,1.217-1.85,1.262-.174,2.388.854,3.3,1.672,2.338,2.107,4.65,4.388,6.871,6.781l.138.148c.537.579,1.094,1.177,1.613,1.785a2.067,2.067,0,0,1,.686,1.581,1.325,1.325,0,0,1-.862,1.045,1.3,1.3,0,0,1-1.313-.232l0,0v-.129H38.1a1.45,1.45,0,0,0-1.521-.128,8.737,8.737,0,0,0-4.46,4.514,1.41,1.41,0,0,0,.476,1.813c3.613,2.789,7.259,5.723,10.834,8.721,1.733,1.454,3.476,2.944,5.178,4.428l.229.2a19.583,19.583,0,0,1,3.717,3.891c.327.5,1.883,3.075.443,4.1h0c-1.362.972-3.3-.426-4.455-1.26l-.063-.046a56.6,56.6,0,0,1-8.96-8.272C36.311,29.76,33.331,25.8,30.7,22.306a1.509,1.509,0,0,0-1.03-.63,1.319,1.319,0,0,0-.139-.007,1.426,1.426,0,0,0-.937.374A22.5,22.5,0,0,0,25.161,25.788Z"/></g></g></svg>