<svg xmlns="http://www.w3.org/2000/svg" viewBox="0 0 57.227 42.508"><title>healthcare</title><g id="Layer_2" data-name="Layer 2"><g id="Layer_1-2" data-name="Layer 1"><path d="M8.494,7.071a1.2,1.2,0,0,0-.639-2.317C1.774,6.346-.685,12.63.162,18.4c.224,1.524,2.539.876,2.317-.639C1.818,13.264,3.778,8.3,8.494,7.071Z"/><path d="M50.677,19.2c-.021-1.3-.021-2.606-.065-3.906A8.752,8.752,0,0,0,50,12.031c-1.047-2.38-3.59-2.784-5.9-3.09A61.906,61.906,0,0,0,36.3,8.515h-.46a.9.9,0,0,0,.023-.126c-.131-2.066.437-4.485-1.4-6.006a4.787,4.787,0,0,0-3.12-.881c-1.167-.02-2.336-.016-3.5,0-1.114.012-2.239,0-3.351.082A4.273,4.273,0,0,0,21.6,2.695a4.65,4.65,0,0,0-1.073,2.89c-.094.967-.135,1.942-.187,2.913h-.142l-4.064,0h0c-2.634-.048-5.448-.463-7.811.963A7.133,7.133,0,0,0,4.9,14.629a32.017,32.017,0,0,0-.181,3.922q-.034,1.963-.052,3.924c-.021,2.689,0,5.379.115,8.066q.087,2.014.256,4.023a13.877,13.877,0,0,0,.57,3.471c1.728,4.838,7.793,4.238,11.933,4.338,5.423.132,10.848.181,16.271.08q4.011-.074,8.017-.266c2.12-.1,4.414-.134,6.31-1.213,2.092-1.188,2.744-3.4,2.781-5.674.042-2.644-.072-5.3-.113-7.944Q50.74,23.278,50.677,19.2ZM22.873,6.1a2.988,2.988,0,0,1,.412-1.719c.392-.457,1.186-.421,1.73-.44.941-.032,1.883-.048,2.824-.058s1.883-.011,2.825,0a4.051,4.051,0,0,1,2.216.281,1.96,1.96,0,0,1,.6,1.408c.091.934-.07,1.879-.01,2.816,0,.043.023.081.03.124Q28.113,8.5,22.728,8.5C22.775,7.7,22.822,6.9,22.873,6.1ZM48.306,37.157c-.487,1.707-2.175,2.248-3.773,2.457-2.265.3-4.6.28-6.885.354-5.044.163-10.092.183-15.138.113q-3.842-.053-7.682-.167c-1.759-.051-3.79.043-5.392-.811-1.807-.965-1.89-3.045-2.039-4.872-.2-2.493-.3-4.995-.334-7.5s-.008-5.006.032-7.509c.019-1.188.007-2.383.084-3.568A5.394,5.394,0,0,1,7.962,13a5.035,5.035,0,0,1,3.969-2.214c1.044-.026,2.113.063,3.16.081l1.039.019h.026l15.1.014c2.525,0,5.053-.025,7.578.043a34.936,34.936,0,0,1,6.953.688A2.683,2.683,0,0,1,47.8,12.941a6.115,6.115,0,0,1,.429,2.52c.065,2.453.077,4.909.115,7.363q.06,3.852.12,7.705.029,1.871.058,3.739A9.915,9.915,0,0,1,48.306,37.157Z"/><path d="M37.739,19.523a8.558,8.558,0,0,0-2.536-.067c-.634.008-1.277.041-1.916.045,0-.265,0-.531,0-.8q-.005-.893-.009-1.784c-.007-1.212-.268-2.5-1.706-2.649a34.7,34.7,0,0,0-3.509-.037l-3.633-.014a1.421,1.421,0,0,0-.2.014h0a1.086,1.086,0,0,0-1.107,1.151q.036,1.3.007,2.6c-.011.433-.027.867-.05,1.3l-.017.314h-.218q-.5,0-.992.014-1.048.022-2.094.081c-.751.042-1.522.1-1.942.825a4.682,4.682,0,0,0-.27,2.151q-.061,2.121-.081,4.243a4.4,4.4,0,0,0,.173,1.916,1.927,1.927,0,0,0,1.913.976q1.057.051,2.112.007c.3-.012.593-.032.889-.056.155-.012.312-.031.468-.038,0,.073,0,.148,0,.171-.011.351-.043.7-.057,1.05q-.043,1.113,0,2.225a3.992,3.992,0,0,0,.332,2.008c.468.724,1.364.677,2.128.723a32.539,32.539,0,0,0,4.146-.013,15.463,15.463,0,0,0,2.351-.246,1.692,1.692,0,0,0,1.321-1.734c.04-.814.022-1.629.073-2.444.023-.37.051-.739.085-1.108.009-.089.015-.247.025-.408.2,0,.4,0,.6,0q.725-.007,1.448-.043a5.953,5.953,0,0,0,2.524-.377c.934-.527.908-1.538.955-2.485q.068-1.355.073-2.712c0-.9-.01-1.809-.05-2.714S38.7,19.826,37.739,19.523Zm-14.714.524c0,.012,0,.025,0,.037a.312.312,0,0,0,0-.033ZM36.6,26.139c-.01.3-.024.6-.039.9-.006.13-.012.259-.021.388a1.736,1.736,0,0,1-.179.027c-.3.023-.593.042-.89.057q-.946.048-1.893.043A2.545,2.545,0,0,0,31.627,28a2.943,2.943,0,0,0-.581,1.917q-.109,1.05-.159,2.1-.024.5-.034,1c0,.135-.006.272-.007.407-.3.027-.651.024-.848.04-.617.05-1.236.082-1.853.1q-.874.02-1.748-.006c-.29-.009-.581-.022-.873-.039l-.164-.01c0-.039,0-.076-.006-.115-.011-.259-.02-.519-.025-.779q-.015-.835.016-1.669a4.377,4.377,0,0,0-.334-2.719c-.625-.944-1.69-.908-2.689-.836q-.777.056-1.555.059c-.3,0-.593,0-.89-.012l-.071,0c.006-.291.042-.6.044-.85q.008-.892.026-1.786t.041-1.785c.009-.3.017-.6.027-.893v-.04h.024l.661-.032q.771-.031,1.543-.044c.984-.016,2.277.212,2.909-.742a5.692,5.692,0,0,0,.415-2.835q.029-.9.025-1.808l2.649.009,1.817.007.8,0,.056,0c0,.463.048,1.277.049,1.4q.005.893.009,1.785a2.153,2.153,0,0,0,.454,1.638,2.538,2.538,0,0,0,1.942.413l1.8-.025c.468-.006,1.006.053,1.5.025.008.217.017.434.023.651q.024.9.019,1.809T36.6,26.139Z"/><path d="M56.276,8.715a4.97,4.97,0,0,0-1.424-.3,9.448,9.448,0,0,1-1.563-.184c.17-.017.334-.677.334-.676a9.964,9.964,0,0,0,.2-1.293q.184-1.164.367-2.328c.126-.8-.529-1.849-1.478-1.477A30,30,0,0,0,49.254,4.1L47.206.583a1.218,1.218,0,0,0-2.2.287,38.21,38.21,0,0,0-1.287,3.722,1.2,1.2,0,0,0,2.317.639c.118-.409.254-.811.385-1.214l1.341,2.3a1.218,1.218,0,0,0,1.644.431c.686-.417,1.389-.8,2.105-1.15l-.168,1.063a5.4,5.4,0,0,0-.152,2.652,1.985,1.985,0,0,0,1.357,1.172c.361.1,1.418.082,2.089.192-.154.323-.358.651-.466.89l-.737,1.626c-.633,1.4,1.437,2.62,2.074,1.213a25.808,25.808,0,0,0,1.642-3.669A1.638,1.638,0,0,0,56.276,8.715Z"/></g></g></svg>