<svg xmlns="http://www.w3.org/2000/svg" viewBox="0 0 41.008 59.8"><title>maps</title><g id="Layer_2" data-name="Layer 2"><g id="Layer_1-2" data-name="Layer 1"><path d="M20.436,4.69A17.241,17.241,0,0,0,3.215,21.911,17.026,17.026,0,0,0,4.9,29.348c.065.139,12.1,23.726,14.436,28.3l1.1,2.155L35.785,29.729a17.031,17.031,0,0,0,1.874-7.817A17.241,17.241,0,0,0,20.436,4.69ZM35.189,21.911a14.581,14.581,0,0,1-1.6,6.694L20.436,54.367l-4.4-8.631c-3.927-7.695-8.813-17.271-8.9-17.453a14.585,14.585,0,0,1-1.444-6.372,14.752,14.752,0,1,1,29.5,0Z"/><path d="M20.436,10.585A11.326,11.326,0,1,0,31.764,21.911,11.339,11.339,0,0,0,20.436,10.585Zm0,3.469a7.857,7.857,0,1,1-7.856,7.857A7.866,7.866,0,0,1,20.436,14.054Z"/><path d="M3.582,13.041a.73.73,0,0,0,.153-1.067L2.5,10.333a19.5,19.5,0,0,1,2.447.055.806.806,0,0,0,.633-.258.772.772,0,0,0,.237-.619L5.521,6.8c.8.115,1.531.254,2.216.421a.863.863,0,0,0,.738-.154.849.849,0,0,0,.33-.663L8.83,4.622a13.458,13.458,0,0,1,1.557.888.778.778,0,0,0,.709.08.9.9,0,0,0,.55-.574L12.3,2.8c.67.44,1.283.853,1.881,1.3a.838.838,0,0,0,1.066-.133A11.462,11.462,0,0,1,18,1.59a.81.81,0,0,0,.4-.723.92.92,0,0,0-.469-.773.786.786,0,0,0-.8.035,12.949,12.949,0,0,0-2.624,2.129c-.872-.629-1.575-1.108-2.259-1.539a.807.807,0,0,0-.72-.069A.877.877,0,0,0,11,1.217L10.323,3.5a15.408,15.408,0,0,0-2.073-1,.745.745,0,0,0-.7.087.916.916,0,0,0-.4.72L7.121,5.363a25.636,25.636,0,0,0-2.535-.394.845.845,0,0,0-.873.875l.311,2.8a20.973,20.973,0,0,0-3.179.071,1,1,0,0,0-.782.566.719.719,0,0,0,.09.735L2.3,12.879a.864.864,0,0,0,.7.356A.974.974,0,0,0,3.582,13.041Z"/><path d="M37.525,12.5a.807.807,0,0,0-.3,1.139,16.355,16.355,0,0,1,2,9.952A26.364,26.364,0,0,1,38.14,28.9a14.779,14.779,0,0,1-2.132,4.529.74.74,0,0,0,.174,1.079.963.963,0,0,0,.561.182.855.855,0,0,0,.705-.362,16.181,16.181,0,0,0,2.327-4.964,28.853,28.853,0,0,0,1.144-5.737A17.845,17.845,0,0,0,38.69,12.772.829.829,0,0,0,37.525,12.5Z"/></g></g></svg>