<svg xmlns="http://www.w3.org/2000/svg" viewBox="0 0 61.852 62.337"><title>stats</title><g id="Layer_2" data-name="Layer 2"><g id="Layer_1-2" data-name="Layer 1"><path d="M60.786,60.147H55.694V20.906a1,1,0,0,0-.294-.746,1.036,1.036,0,0,0-.8-.349H43.194a1.1,1.1,0,0,0-.272.032,1.044,1.044,0,0,0-1.033,1.063V60.147H38.232V29.777a1,1,0,0,0-.294-.746,1.035,1.035,0,0,0-.8-.349H25.732a1.092,1.092,0,0,0-.272.032,1.044,1.044,0,0,0-1.033,1.063v30.37H20.912V15.216a1.007,1.007,0,0,0-.313-.766,1.027,1.027,0,0,0-.782-.329H8.412a.736.736,0,0,0-.235.028,1.05,1.05,0,0,0-1.071,1.066V60.147H2.189V1.05A1.1,1.1,0,0,0,0,1.05V61.162a.968.968,0,0,0,.341.784,1.027,1.027,0,0,0,.834.391H60.786a1.1,1.1,0,0,0,0-2.19ZM53.5,22V60.147H44.078V22ZM36.043,30.872V60.147H26.616V30.872ZM18.722,16.311V60.147H9.295V16.311Z"/><path d="M36.194,24.131a1,1,0,0,0,.273.037,1.213,1.213,0,0,0,.651-.195.918.918,0,0,0,.432-.638A10.391,10.391,0,0,1,39.817,17.6a5.2,5.2,0,0,1,5.075-1.8,1.045,1.045,0,0,0,.875-.144A1.158,1.158,0,0,0,46.216,15a1.124,1.124,0,0,0-.068-.775,1.01,1.01,0,0,0-.681-.532,7.36,7.36,0,0,0-6.91,2.06,11.979,11.979,0,0,0-3.131,7.064A1.117,1.117,0,0,0,36.194,24.131Z"/><path d="M9.7,9.842l3.685-2.994A12.446,12.446,0,0,1,13.414,8.5c-.011.243-.028.487-.052.729a1.038,1.038,0,0,0,.57.983.99.99,0,0,0,1.1-.03l4.455-3.4.741,2.139c.2.615.477,1.457,1.093,1.736a1.037,1.037,0,0,0,.437.094,1.428,1.428,0,0,0,.556-.124,3.839,3.839,0,0,0,.97-.691c.107-.094.213-.187.314-.268l4.267-3.4a.923.923,0,0,0,.375-.875,1.178,1.178,0,0,0-.747-.881,1.122,1.122,0,0,0-1.136.171l-3.838,3.06c-.079.062-.18.157-.29.263L21.08,4.689a1.27,1.27,0,0,0-.8-.765.9.9,0,0,0-.828.144L15.589,7.015A14.306,14.306,0,0,0,15.376,5.3c-.046-.257-.1-.512-.16-.767a.983.983,0,0,0-.652-.731A1.241,1.241,0,0,0,13.4,4.02L8.188,8.259A.943.943,0,0,0,8.05,9.645,1.163,1.163,0,0,0,9.7,9.842Z"/></g></g></svg>