<svg xmlns="http://www.w3.org/2000/svg" viewBox="0 0 46.538 57.203"><title>economics</title><g id="Layer_2" data-name="Layer 2"><g id="Layer_1-2" data-name="Layer 1"><path d="M34.851 47.721a10.142 10.142 0 0 0 4.38-5.6 10.8 10.8 0 0 0-.678-7.409 12.57 12.57 0 0 0-5.016-5.471 16.683 16.683 0 0 0-3.44-1.578 17.2 17.2 0 0 0-1.772-.49 5.947 5.947 0 0 0-.552-.083 2.679 2.679 0 0 1-1.014-.242c-.26-.174-.289-.8-.31-1.264-.008-.165-.015-.317-.029-.445q-.146-1.247-.252-2.5a71.513 71.513 0 0 1-.213-3.442 6.419 6.419 0 0 1 1.387 1.585c.14.213.265.438.39.664a7.785 7.785 0 0 0 .632 1.009 2.587 2.587 0 0 0 2.334.9c.594 0 1.188-.011 1.78-.019l.884-.011c.267 0 .544 0 .822.013a9.815 9.815 0 0 0 2.046-.084c2-.373 1.586-2.659 1.366-3.888a12.209 12.209 0 0 0-5.185-7.7 15.225 15.225 0 0 0-4.276-2.026q-.543-.163-1.089-.285a2.085 2.085 0 0 1-.155-.047 3.277 3.277 0 0 0-.316-.091c0-.193.02-.445.033-.606s.023-.283.023-.366v-1.5c0-.14 0-.288.01-.439a2.851 2.851 0 0 0-.673-2.429 3.03 3.03 0 0 0-2.175-.475l-6.806.115a1.236 1.236 0 0 0-.867.382 1.142 1.142 0 0 0-.326.823l.1 4.306a14.684 14.684 0 0 0-7.354 5.419 15.365 15.365 0 0 0-2.783 4.9 9.952 9.952 0 0 0 .065 5.484 15.817 15.817 0 0 0 5.916 8.659 9.907 9.907 0 0 0 4.775 1.554l.126.012a1.381 1.381 0 0 1 .553.118c.119.121.105.533.1.778 0 .1-.007.2 0 .282q.038 1.63.035 3.261c0 1.073-.008 2.321-.057 3.557v.1l-.084-.023-.107-.029a3.694 3.694 0 0 1-1.041-.442 4.149 4.149 0 0 1-1.94-4.085 1 1 0 0 0-.266-.793 1.285 1.285 0 0 0-.926-.441h-.007l-5.606.052c-.189 0-.4-.006-.605-.014a5.056 5.056 0 0 0-1.92.172 1.878 1.878 0 0 0-1.125 1.975 13.475 13.475 0 0 0 3.618 8.4 13.7 13.7 0 0 0 8 4.172c.374.054.745.088 1.119.122a1.205 1.205 0 0 1 .3.048c.006.005.037.042.079.255a7.677 7.677 0 0 1 .106 1.422 10.858 10.858 0 0 0 .051 1.1c.157 1.376 1.252 2.161 3.009 2.161h.063c.7-.007 1.405-.031 2.109-.055l1.08-.034c.186 0 .389 0 .6.007a3.991 3.991 0 0 0 2.175-.328c.881-.544.792-1.488.722-2.246l-.215-2.314a11.886 11.886 0 0 0 3.363-1.428c1.078-.625 2.148-1.263 3.219-1.9l1.468-.874a1.185 1.185 0 0 0 .342-.311zM24.08 50.542a1.317 1.317 0 0 0-.08 1.194l.267 2.866v.017c-.422.01-.975.056-1.369.089-.175.015-.307.026-.358.028l-2.27.064c-.063 0-.139.007-.223.013-.475.034-.738.013-.778-.063a1.5 1.5 0 0 1 0-.44c.009-.1.017-.2.017-.27a10.983 10.983 0 0 0-.089-1.279c-.16-1.293-.547-2.647-2.2-2.88l-.636-.086a14.192 14.192 0 0 1-2.889-.588 11.1 11.1 0 0 1-7.124-7.817 8.136 8.136 0 0 1-.171-1 13.99 13.99 0 0 0-.085-.6h.034c.087 0 .178.007.258 0l5.3-.05c.275 2.815 2.7 5.833 5.914 5.833h.002a1.948 1.948 0 0 0 2-1.7 13.676 13.676 0 0 0 .118-2.588c0-.3-.011-.606-.008-.9q.013-1.638-.014-3.274v-.563a4.88 4.88 0 0 0-.443-2.61c-.676-1.114-1.96-1.246-3.093-1.362a7.185 7.185 0 0 1-1.465-.247 8.713 8.713 0 0 1-3.979-3.094C9.654 27.87 6.344 23.061 8.6 18.692c2.1-4.055 5.379-6.881 8.783-7.559a1.063 1.063 0 0 0 .777-.568 1.2 1.2 0 0 0 .105-.391.584.584 0 0 0 .044-.227l-.1-4.049 4.513-.075c.494-.009.988-.019 1.481-.022h.03c0 .057-.008.124-.008.2v1.351c0 .215-.012.451-.023.7-.061 1.186-.136 2.661 1.1 3.3a4.73 4.73 0 0 0 1.252.376c.2.04.391.079.575.129a13.6 13.6 0 0 1 1.94.686 10.819 10.819 0 0 1 5.579 5.369 8.975 8.975 0 0 1 .573 1.819 6.606 6.606 0 0 1 .122.81c.009.1.016.2.021.32-.331 0-.667.017-1 .04-.249.017-.494.034-.725.037l-2.663.029c-.072 0-.159.008-.253.016a1.474 1.474 0 0 1-.537-.015 1.953 1.953 0 0 1-.287-.513 3.409 3.409 0 0 0-.155-.319 13.469 13.469 0 0 0-1.183-1.7A6.1 6.1 0 0 0 25 16.168a1.331 1.331 0 0 0-1.1.278 1.12 1.12 0 0 0-.394.888 80.247 80.247 0 0 0 .635 8.791c.147 1.148.3 2.336 1.64 2.9a9.4 9.4 0 0 0 1.9.5 12.851 12.851 0 0 1 1.3.294c4.184 1.266 8.352 4.787 8.23 9.8a7.458 7.458 0 0 1-3.787 6.174 1.25 1.25 0 0 0-.312.275l-1.627.965c-.809.48-1.617.961-2.456 1.456A8.328 8.328 0 0 1 25.058 50a1.12 1.12 0 0 0-.978.542z"/><path d="M31.128 41.125c1.045-2.282-.451-4.774-2.283-6.124a6.829 6.829 0 0 0-2.955-1.255 2.05 2.05 0 0 0-1.687.29 1.824 1.824 0 0 0-.561 1.423 81.872 81.872 0 0 0 .238 8.235 1.182 1.182 0 0 0 .729 1.033 1.348 1.348 0 0 0 .532.109 1.228 1.228 0 0 0 .7-.208c1.847-.295 4.315-1.383 5.287-3.503zm-2.315-.786a4.566 4.566 0 0 1-2.636 1.789 87.094 87.094 0 0 1-.118-2.854q-.025-1.023-.03-2.048v-1l.123.043.077.027a4.621 4.621 0 0 1 1.095.557 4.208 4.208 0 0 1 1.641 2.063 1.705 1.705 0 0 1-.153 1.424zM16.921 15.722a5.29 5.29 0 0 0-3.222 2.5 5.95 5.95 0 0 0 .039 6.321 5.012 5.012 0 0 0 2.69 2.021 4.069 4.069 0 0 0 1.128.179 1.891 1.891 0 0 0 1.036-.265 1.388 1.388 0 0 0 .613-1.05 20.4 20.4 0 0 0 .082-2.776c-.007-.43-.014-.856-.007-1.276l.054-3.77a1.009 1.009 0 0 0-.286-1.319 2.559 2.559 0 0 0-2.127-.565zm-.048 8.119c0 .113.009.228.012.342l-.105-.047a2.594 2.594 0 0 1-.937-.753 3.358 3.358 0 0 1-.635-2.25 3.87 3.87 0 0 1 .782-2.038 4.963 4.963 0 0 1 .94-.9l-.072 4.969c-.003.215.006.443.015.676zM4.8 12.905a1.255 1.255 0 0 0 0-1.762l-2.676-2.18a1.282 1.282 0 0 0-1.762 0 1.255 1.255 0 0 0 0 1.762l2.675 2.18a1.282 1.282 0 0 0 1.763 0zM6.161 8.7c.9 1.315 3.061.07 2.151-1.258Q6.041 4.121 4.084.612C3.3-.789 1.15.466 1.932 1.869Q3.891 5.38 6.161 8.7zM12.2 6.852a1.254 1.254 0 0 0 .87-1.532 8.564 8.564 0 0 1-.67-3.629c.054-1.6-2.438-1.6-2.491 0a10.321 10.321 0 0 0 .759 4.291 1.286 1.286 0 0 0 1.532.87zM44.424 38.9c-.927-1.291-3.089-.048-2.151 1.258l1.041 1.449c.049.068.151.23.263.4-.511.157-1.1.279-1.393.378a1.267 1.267 0 0 0-.744 1.83l.432.857c-1.125.114-2.334.333-2.832 1.134a3.616 3.616 0 0 0 .061 2.765 15.751 15.751 0 0 1-1.563-.212A1.265 1.265 0 0 0 36 50.3c.094.531.166 1.06.219 1.592l-1.5-.366a1.261 1.261 0 0 0-1.577 1.2l-.027 2.881a1.246 1.246 0 0 0 2.491 0l.012-1.3 1.618.395a1.259 1.259 0 0 0 1.577-1.2c-.022-.7-.078-1.387-.156-2.076a19.312 19.312 0 0 0 2.146.113 1.261 1.261 0 0 0 1.2-1.577l-.421-1.691-.156-.627c.855-.207 2.07-.224 2.684-.324a1.259 1.259 0 0 0 .745-1.83l-.555-1.115c.958-.287 1.938-.7 2.18-1.549.39-1.355-1.356-2.947-2.056-3.926z"/></g></g></svg>