<svg xmlns="http://www.w3.org/2000/svg" viewBox="0 0 59.318 49.184"><title>education</title><g id="Layer_2" data-name="Layer 2"><g id="Layer_1-2" data-name="Layer 1"><path d="M38.765 6.189a1.237 1.237 0 0 0 1.228-1.227l-.2-2.4a1.259 1.259 0 0 0-1.227-1.227 1.237 1.237 0 0 0-1.227 1.227l.2 2.4a1.259 1.259 0 0 0 1.226 1.227zm5.541 1.167q1.485-2.689 2.762-5.481C47.72.449 45.6-.8 44.948.637q-1.277 2.793-2.762 5.48c-.764 1.383 1.355 2.624 2.12 1.239zm2.609 3.071a1.242 1.242 0 0 0 1.736 0 2.514 2.514 0 0 1 1.489-.809 1.263 1.263 0 0 0 1.227-1.228 1.236 1.236 0 0 0-1.227-1.227 5.029 5.029 0 0 0-3.225 1.528 1.251 1.251 0 0 0 0 1.736zM16.5 41.852c-.913.38-2.141.632-2.572-.467-.376-.958-.654-1.753-1.71-2.124a7.243 7.243 0 0 0-2.606-.135c-.424.008-.713.061-.927-.3a4.722 4.722 0 0 1-.172-1.38A2.658 2.658 0 0 0 7.186 35.4c-.479-.258-.994-.16-1.087-.686-.084-.472.388-1.2.506-1.652a3.221 3.221 0 0 0-.568-3.022c-.261-.329-.744-.62-.712-1.023.053-.668 1.037-1.448 1.5-1.852 1.19-1.043-.552-2.774-1.736-1.736-1.065.934-2.385 2.429-2.263 3.952a2.744 2.744 0 0 0 .7 1.538c.17.205.561.489.675.727.229.479-.016.932-.165 1.379a3.711 3.711 0 0 0 .1 3.458c.455.629 1.013.625 1.615.994.307.188.219.1.364.46a4.458 4.458 0 0 1 .1.933 2.867 2.867 0 0 0 1.824 2.507 4.478 4.478 0 0 0 1.576.2c.359-.007 1.4-.258 1.711-.032.33.237.433 1.173.71 1.593a3.175 3.175 0 0 0 1.27 1.09 4.768 4.768 0 0 0 3.849-.012c1.432-.595.801-2.972-.655-2.364z"/><path d="M58.614 17.616L29.764 4.033a1.474 1.474 0 0 0-1.506.1 1.185 1.185 0 0 0-.444.177 108.873 108.873 0 0 1-14.983 7.86c-2.028.933-4.125 1.9-6.162 2.9-2.24 1.1-4.2 2.144-5.986 3.192A1.49 1.49 0 0 0 0 19.616a1.19 1.19 0 0 0 .705 1.064 537.034 537.034 0 0 1 8.4 3.831 1.539 1.539 0 0 0-.047.348l-.123 6.16c0 .152-.009.307-.015.463a5.4 5.4 0 0 0 .337 2.618 4.087 4.087 0 0 0 2.123 1.741l.191.094c3.67 1.829 7.422 3.59 11.15 5.234q1.409.622 2.824 1.227c.172.073.344.149.517.226a8.774 8.774 0 0 0 2.644.85 5.469 5.469 0 0 0 2.852-.708l14.636-6.549c.226-.1.461-.2.7-.294a7.5 7.5 0 0 0 2.237-1.221c.976-.875.878-2.1.792-3.187l-.552-7.227a132.003 132.003 0 0 1 3.62-1.433l.224-.083-.045 7.794c0 .427-.016.86-.029 1.294a22.7 22.7 0 0 0 .044 3.093 1.805 1.805 0 0 0-.515.46 13.1 13.1 0 0 0-2.74 8.317 6.714 6.714 0 0 0 1.145 3.785 3.913 3.913 0 0 0 2.525 1.653 2.437 2.437 0 0 0 .291.018 2.364 2.364 0 0 0 1.533-.576A4.378 4.378 0 0 0 56.528 47a19.487 19.487 0 0 0 .826-2.086 13.024 13.024 0 0 0 .688-4.126 8.667 8.667 0 0 0-1.037-4.146 6.581 6.581 0 0 0-.435-.652 4.292 4.292 0 0 1-.528-.861 4.025 4.025 0 0 1-.122-1.629c.011-.2.021-.39.022-.57l.064-11.164a.665.665 0 0 0-.008-.1 10.882 10.882 0 0 0 2.908-1.841A1.385 1.385 0 0 0 59.3 18.6a1.254 1.254 0 0 0-.686-.984zM11.7 31.76c.008-.14.016-.278.019-.412l.111-5.567c4.222 1.992 8.339 4 12.243 5.962q1.468.739 2.93 1.486a4.411 4.411 0 0 0 3.13.637 7.49 7.49 0 0 0 2.11-1.047c.224-.142.443-.281.661-.407q1.313-.763 2.643-1.5a136.552 136.552 0 0 1 11.067-5.466l.06-.025.461 6.04c.008.1.028.232.051.375a2.194 2.194 0 0 1 .041.831c-.014.035-.112.083-.185.117l-.082.041c-.281.145-.573.271-.864.4L35.1 38.141c-.59.264-1.18.536-1.769.808-1.163.537-2.366 1.093-3.566 1.579a2.394 2.394 0 0 1-2.035-.211 161.03 161.03 0 0 1-2.525-1.083l-.06-.026c-3.448-1.5-6.913-3.1-10.3-4.754l-.716-.347c-.687-.331-1.4-.672-2.084-1.045-.239-.13-.311-.174-.339-.337a4.327 4.327 0 0 1-.006-.965zm24.237-4.225a135.947 135.947 0 0 0-5.314 2.984c-.11.065-.222.137-.335.209a4.05 4.05 0 0 1-.769.423.881.881 0 0 1-.646-.1c-.6-.252-1.2-.571-1.772-.88-.3-.159-.594-.318-.892-.468a546.44 546.44 0 0 0-11.329-5.559c-3.21-1.528-6.617-3.1-10.4-4.807 3.174-1.711 6.5-3.243 9.719-4.727 3.049-1.4 6.2-2.857 9.22-4.459a67.947 67.947 0 0 0 5.693-3.36l26 12.24c-.69.332-1.424.6-2.137.864l-.57.211a141.293 141.293 0 0 0-16.47 7.429z"/></g></g></svg>