<svg xmlns="http://www.w3.org/2000/svg" viewBox="0 0 46.796 35.503"><title>healtchare</title><g id="Layer_2" data-name="Layer 2"><g id="Text"><path d="M7.095 5.405a1 1 0 0 0-.533-1.935C1.481 4.8-.572 10.048.135 14.868c.187 1.273 2.121.732 1.935-.533-.551-3.757 1.086-7.899 5.025-8.93z"/><path d="M41.325 16.034c-.017-1.087-.017-2.176-.054-3.262a7.313 7.313 0 0 0-.512-2.724c-.874-1.988-3-2.325-4.924-2.581a51.705 51.705 0 0 0-6.52-.355h-.384a.74.74 0 0 0 .019-.105c-.11-1.725.365-3.746-1.166-5.016a4 4 0 0 0-2.606-.736 92.065 92.065 0 0 0-2.926 0c-.931.01-1.87 0-2.8.068a3.568 3.568 0 0 0-2.417.932 3.883 3.883 0 0 0-.9 2.414c-.078.808-.112 1.622-.156 2.433h-3.512c-2.2-.04-4.55-.387-6.524.8a5.958 5.958 0 0 0-2.857 4.32 26.726 26.726 0 0 0-.151 3.276q-.025 1.635-.035 3.274c-.017 2.245 0 4.493.1 6.737q.073 1.682.214 3.36a11.581 11.581 0 0 0 .476 2.9c1.443 4.041 6.508 3.54 9.966 3.623 4.529.11 9.06.151 13.589.067q3.35-.061 6.7-.222a11.656 11.656 0 0 0 5.27-1.013c1.748-.992 2.292-2.84 2.323-4.739.035-2.208-.06-4.426-.094-6.635zM18.1 5.1a2.5 2.5 0 0 1 .344-1.435c.328-.382.991-.352 1.445-.367.786-.027 1.573-.04 2.359-.048s1.573-.009 2.359 0a3.383 3.383 0 0 1 1.851.235 1.637 1.637 0 0 1 .5 1.176c.076.78-.058 1.569-.009 2.352 0 .036.019.068.025.1q-4.5-.012-9-.01c.048-.671.087-1.339.126-2.003zm21.245 25.933c-.407 1.425-1.817 1.878-3.151 2.052-1.892.247-3.845.234-5.75.3-4.213.136-8.429.153-12.643.094q-3.209-.044-6.416-.14c-1.469-.043-3.165.036-4.5-.678-1.509-.806-1.578-2.543-1.7-4.069-.171-2.082-.251-4.172-.279-6.26s-.007-4.181.027-6.272c.016-.992.006-1.99.07-2.98a4.506 4.506 0 0 1 .655-2.221 4.2 4.2 0 0 1 3.307-1.853c.872-.022 1.765.052 2.639.068l.868.016h.022l12.611.01c2.109 0 4.22-.021 6.329.036a29.177 29.177 0 0 1 5.807.575 2.24 2.24 0 0 1 1.681 1.1 5.1 5.1 0 0 1 .358 2.1c.054 2.049.065 4.1.1 6.149l.1 6.435.048 3.123a8.286 8.286 0 0 1-.183 2.415z"/><path d="M30.52 16.305a7.147 7.147 0 0 0-2.12-.055c-.529.007-1.066.034-1.6.038v-.666q0-.746-.008-1.49c-.006-1.012-.224-2.084-1.424-2.212a29 29 0 0 0-2.931-.031l-3.037-.013a1.19 1.19 0 0 0-.167.011.907.907 0 0 0-.925.962q.03 1.088.006 2.174c-.01.362-.023.724-.042 1.086l-.014.262h-.182q-.415 0-.829.011-.875.018-1.748.068c-.627.035-1.271.084-1.622.689a3.91 3.91 0 0 0-.225 1.8q-.051 1.772-.067 3.544a3.674 3.674 0 0 0 .144 1.6 1.609 1.609 0 0 0 1.6.815q.882.043 1.764.006c.248-.01.5-.027.742-.047.129-.01.26-.026.391-.031v.143c-.01.293-.036.584-.047.877q-.036.929 0 1.859a3.334 3.334 0 0 0 .277 1.677c.391.6 1.139.565 1.777.6a27.178 27.178 0 0 0 3.463-.01 12.917 12.917 0 0 0 1.963-.205 1.414 1.414 0 0 0 1.1-1.448c.033-.679.018-1.361.061-2.041.019-.309.043-.617.071-.926.008-.074.012-.206.021-.341h.5q.606-.006 1.21-.036a4.972 4.972 0 0 0 2.108-.315c.78-.44.758-1.285.8-2.075q.057-1.132.061-2.265c0-.755-.009-1.511-.042-2.266s-.228-1.496-1.029-1.749zm-12.289.437v.031-.028zm11.335 5.089c-.009.252-.02.5-.032.755 0 .108-.01.217-.017.324a1.456 1.456 0 0 1-.149.023q-.371.028-.743.047-.79.04-1.581.036a2.125 2.125 0 0 0-1.628.366 2.457 2.457 0 0 0-.486 1.6q-.091.877-.133 1.758-.02.417-.029.835c0 .113 0 .227-.006.34-.251.023-.544.02-.708.033-.515.042-1.032.068-1.548.08q-.73.017-1.46 0-.363-.012-.729-.032l-.137-.009v-.1c-.01-.217-.017-.433-.021-.651q-.013-.7.013-1.394a3.655 3.655 0 0 0-.279-2.271c-.522-.789-1.411-.758-2.245-.7q-.649.047-1.3.049c-.248 0-.5 0-.743-.01h-.059c0-.243.035-.5.037-.71q.007-.745.022-1.492t.034-1.491c.008-.249.014-.5.023-.746v-.033h.02l.552-.027q.644-.026 1.289-.037c.822-.013 1.9.177 2.43-.62a4.753 4.753 0 0 0 .347-2.368q.024-.755.021-1.51l2.212.008 1.518.006h.711c0 .387.04 1.066.041 1.169q0 .746.008 1.491a1.8 1.8 0 0 0 .379 1.368 2.12 2.12 0 0 0 1.622.345l1.5-.021c.391 0 .84.045 1.251.021.007.182.014.362.019.544q.02.755.016 1.511t-.032 1.513zM46 7.278a4.153 4.153 0 0 0-1.19-.248 7.889 7.889 0 0 1-1.306-.154c.142-.014.279-.566.279-.564a8.315 8.315 0 0 0 .171-1.08l.307-1.944c.1-.664-.442-1.544-1.234-1.234a25.062 25.062 0 0 0-2.892 1.368L38.426.487a1.017 1.017 0 0 0-1.834.24 31.892 31.892 0 0 0-1.075 3.109 1 1 0 0 0 1.935.533c.1-.342.212-.677.322-1.014l1.12 1.922a1.017 1.017 0 0 0 1.373.36c.573-.348 1.16-.665 1.758-.96l-.14.888a4.514 4.514 0 0 0-.127 2.215 1.658 1.658 0 0 0 1.133.979c.3.088 1.185.069 1.744.16-.129.27-.3.544-.389.743l-.615 1.358c-.529 1.167 1.2 2.188 1.732 1.013a21.558 21.558 0 0 0 1.372-3.064A1.369 1.369 0 0 0 46 7.278z"/></g></g></svg>