<svg xmlns="http://www.w3.org/2000/svg" viewBox="0 0 52.951 51.473"><title>housing</title><g id="Layer_2" data-name="Layer 2"><path d="M50.363 22.261c-.316-.252-.632-.5-.935-.76a207.062 207.062 0 0 1-5.194-4.557 75.4 75.4 0 0 0-.134-8.753 30.458 30.458 0 0 0-.146-2.894l-.012-.097a2.519 2.519 0 0 0-.665-1.774 2.6 2.6 0 0 0-1.823-.463H41.2l-2.187-.028-1.482-.015c-.6-.009-1.2-.017-1.794-.021a2.191 2.191 0 0 0-1.762.521 2.336 2.336 0 0 0-.442 1.7v.639A51.279 51.279 0 0 1 27.4.391a1.116 1.116 0 0 0-.88-.364 1.117 1.117 0 0 0-1.061.332c-1.473 1.473-2.935 3-4.349 4.484-1.2 1.258-2.444 2.56-3.688 3.819A212.797 212.797 0 0 1 3.811 21.3c-.163.139-.377.306-.619.5-1.3 1.02-3.273 2.56-3.189 4.009a1.9 1.9 0 0 0 1.062 1.482 5.276 5.276 0 0 0 3.1.434c.191-.011.379-.022.562-.03l3.461-.133c.1 0 .225-.019.353-.034a2.152 2.152 0 0 1 .761-.01c.188.057.188.057.2.229l.011.1a6.015 6.015 0 0 1 .017.764v2.869l.006 4.929q0 4.925.013 9.854c0 .293 0 .587-.007.881-.007.611-.014 1.242.01 1.86a2.284 2.284 0 0 0 .938 2 3.536 3.536 0 0 0 1.918.369l8.131.057 5.815.042a.734.734 0 0 0 .134-.008 1.458 1.458 0 0 0 .163.008l13.243-.1h.44a3.934 3.934 0 0 0 2.18-.377c.94-.59.939-1.652.939-2.589l.007-6.71c0-1.495-.006-2.99-.015-4.486-.016-2.958-.032-6.015.033-9.018v-.15c0-.275 0-.474.133-.536a2.436 2.436 0 0 1 .97.011c.159.02.3.038.409.042l3.287.126c.152.006.313.015.48.024 1.378.076 3.261.179 3.988-1.3a2.277 2.277 0 0 0-.634-2.654 20.956 20.956 0 0 0-1.748-1.494zm-9.107 4.419a5.61 5.61 0 0 0-.219 1.955v.3l-.011 9.308q-.006 3.012-.008 6.023v2.92c0 .181.006.366.012.553a7.288 7.288 0 0 1-.015 1.075.746.746 0 0 0-.006.143 1.677 1.677 0 0 1-.5 0c-.1-.009-.184-.012-.255-.017l-7.042.05c.065-3.558.111-7.037 0-10.464a85.237 85.237 0 0 0-.361-5.554l-.017-.17c-.134-1.365-.285-2.913-1.535-3.744a3.873 3.873 0 0 0-2.039-.514 91.075 91.075 0 0 0-2-.053c-.318-.006-.636-.012-.954-.02s-.619-.022-.935-.037a29.492 29.492 0 0 0-1.4-.044 8.072 8.072 0 0 0-2.1.233 3.207 3.207 0 0 0-2.517 2.894 32.2 32.2 0 0 0-.054 3.753c.015.577.029 1.173.028 1.75v11.961l-6.567-.048c-.039 0-.113.006-.2.013a5.154 5.154 0 0 1-.6.023 5.554 5.554 0 0 0 .045-.877l-.032-16.242c0-.428.011-.861.021-1.3a20.873 20.873 0 0 0-.073-3.1c-.342-2.724-3.062-2.5-5.252-2.311-.387.032-.752.063-1.086.076l-.657.027c-.531.021-1.061.043-1.592.059H3.22c-.116 0-.236.01-.353.005l.1-.1a2.611 2.611 0 0 1 .2-.194l.787-.654q.851-.71 1.7-1.431A213.262 213.262 0 0 0 18.43 11.109a297.134 297.134 0 0 0 4.273-4.407 338.984 338.984 0 0 1 3.716-3.845A54.315 54.315 0 0 0 34.1 9.143a1.089 1.089 0 0 0 1.144.048 1.285 1.285 0 0 0 .7-1.1l.021-1.9c0-.144-.006-.308-.016-.479-.008-.153-.017-.311-.018-.463.316.006.714.034 1.042.064.239.022.446.042.583.043l2.733.033c.115 0 .247.014.385.027a3.21 3.21 0 0 0 .849 0c0 .025 0 .05.007.076.074.776.115 1.611.125 2.555v.147c0 .057.008.093.01.143a74.815 74.815 0 0 1 .109 9.014 1.091 1.091 0 0 0 .225.755 1.187 1.187 0 0 0 .266.336c1.5 1.358 2.979 2.667 4.4 3.89q1.047.9 2.109 1.789c.207.175.417.348.626.522l.437.362c.04.034.084.076.131.121s.109.1.166.151a16.962 16.962 0 0 1-3.187-.048 35.057 35.057 0 0 0-1.427-.092l-.45-.021c-1.425-.065-3.195-.158-3.814 1.564zm-19.5 5.969c-.031-.513-.069-1.15.226-1.439.5-.491 1.606-.419 2.412-.366.188.012.361.023.511.027.5.013 1.028.005 1.535 0a19.585 19.585 0 0 1 3.107.119c.881.133.922 1.663.948 2.675.007.222.012.42.024.576.123 1.484.207 3 .258 4.647.1 3.267.058 6.518-.006 10.117l-4.117.03a1.105 1.105 0 0 0-.147.01 1.116 1.116 0 0 0-.147-.01q-2.3-.015-4.593-.034v-15.95c.003-.118-.005-.251-.013-.402z" id="Layer_1-2" data-name="Layer 1"/></g></svg>